# xmcd CD database file
#
# Track frame offsets:
#	150
#	16682
#	31924
#	46373
#	61979
#	81606
#	97291
#	114035
#	132184
#	148990
#	165107
#	180991
#
# Disc length: 2634 seconds
#
# Revision: 1
# Processed by: cddbd v1.5.2PL0 Copyright (c) Steve Scherf et al.
# Submitted via: CDex 1.51
#
DISCID=950a480c
DTITLE=Preluders - Girls In The House
DYEAR=2003
DGENRE=Pop
TTITLE0=Girls In The House
TTITLE1=Everyday Girl
TTITLE2=Bal Prive
TTITLE3=Catch Me
TTITLE4=Losing My Religion
TTITLE5=Bye Bye For The Better
TTITLE6=We Love To Entertain You
TTITLE7=Riding On A Lovetrain
TTITLE8=Sundown
TTITLE9=I Tattoo You
TTITLE10=You're Blocking My Sun
TTITLE11=Born To Love You Forever
EXTD=YEAR: 2003
EXTT0=
EXTT1=
EXTT2=
EXTT3=
EXTT4=
EXTT5=
EXTT6=
EXTT7=
EXTT8=
EXTT9=
EXTT10=
EXTT11=
PLAYORDER=
